# xmcd CD database file
#
# Track frame offsets:
#	150
#	16587
#	27700
#	45200
#	54375
#	66137
#	84375
#	97637
#	116450
#	136400
#	160500
#	186850
#	197400
#	209387
#
# Disc length: 3037 seconds
#
# Revision: 2
# Processed by: cddbd v1.4b41PL1 Copyright (c) Steve Scherf et al.
# Submitted via: Feurio! 1.50.2ß - http://www.feurio.com
#
DISCID=a40bdb0e
DTITLE=The Flowerpot Men - The Flowerpot Men
DYEAR=1900
DGENRE=
TTITLE0=Let's Go To San Francisco - Part 1
TTITLE1=Let's Go To San Francisco - Part 2
TTITLE2=A Walk In The Sky
TTITLE3=Am I Loosing You
TTITLE4=You Can Never Be Wrong
TTITLE5=Man Without A WOman
TTITLE6=Busy Doin' Nothing
TTITLE7=White Dove
TTITLE8=Journey's End
TTITLE9=Mythological Sunday
TTITLE10=Blow Away
TTITLE11=Piccolo Man
TTITLE12=Let's Go Back To San Francisco
TTITLE13=Silicon City
EXTD=
EXTT0=
EXTT1=
EXTT2=
EXTT3=
EXTT4=
EXTT5=
EXTT6=
EXTT7=
EXTT8=
EXTT9=
EXTT10=
EXTT11=
EXTT12=
EXTT13=
PLAYORDER=
